<svg width="29" height="26" viewBox="0 0 29 26" fill="none" xmlns="http://www.w3.org/2000/svg">
<path d="M13.5694 4.91951L14.7705 6.52489L15.9716 4.91951C17.1203 3.38406 18.959 2.38892 21.0064 2.38892C24.4828 2.38892 27.3154 5.22155 27.3154 8.74002C27.3154 10.2482 27.0751 11.6376 26.6579 12.9272L26.6579 12.9272L26.6548 12.937C25.6526 16.1083 23.5888 18.6921 21.3226 20.6397C19.0499 22.593 16.6599 23.8315 15.1581 24.3425L15.1501 24.3452L15.1421 24.348C15.1423 24.348 15.1321 24.3515 15.1101 24.3566C15.0885 24.3616 15.0597 24.3671 15.024 24.3722C14.9512 24.3826 14.8639 24.3889 14.7705 24.3889C14.677 24.3889 14.5898 24.3826 14.517 24.3722C14.4813 24.3671 14.4525 24.3616 14.4309 24.3566C14.4089 24.3515 14.3987 24.348 14.3989 24.348L14.3909 24.3452L14.3829 24.3425C12.8811 23.8315 10.4911 22.593 8.21836 20.6397C5.95219 18.6921 3.88835 16.1083 2.88621 12.937L2.88624 12.937L2.88309 12.9272C2.46586 11.6376 2.22559 10.2482 2.22559 8.74002C2.22559 5.22155 5.0582 2.38892 8.53456 2.38892C10.582 2.38892 12.4207 3.38406 13.5694 4.91951Z" stroke="#85D3FF" stroke-width="3"/>
</svg>
